<svg enable-background="new 0 0 1544 500" height="500" viewBox="0 0 1544 500" width="1544" xmlns="http://www.w3.org/2000/svg"><path d="m0 0h1544v500h-1544z" fill="#23282d"/><g fill="#fff"><path d="m1089.7 72.2h364.3v27.7h-364.3z" opacity=".32"/><path d="m1089.7 137.6h364.3v27.7h-364.3z" opacity=".32"/><path d="m1089.7 202.9h364.3v27.7h-364.3z" opacity=".32"/></g><path d="m1106.8 278v-11h-8.3v11h-10.5v8.1h10.5v11.1h8.3v-11.1h10.6v-8.1z" fill="#d35218"/><path d="m1106.8 343.3v-11h-8.3v11h-10.5v8.1h10.5v11.1h8.3v-11.1h10.6v-8.1z" fill="#d35218"/><path d="m1131.7 398.9h322.3v27.7h-322.3z" fill="#fff" opacity=".32"/><path d="m1106.8 408.6v-11h-8.3v11h-10.5v8.1h10.5v11.1h8.3v-11.1h10.6v-8.1z" fill="#d35218"/><path d="m1131.7 333.6h322.3v27.7h-322.3z" fill="#fff" opacity=".32"/><path d="m1131.7 268.3h322.3v27.7h-322.3z" fill="#fff" opacity=".32"/><g fill="#d35218"><path d="m1222.3 355.6c-.6-.3-1-.5-1.7-.8 13.2-30.5 26.4-60.9 39.6-91.6-5.2-.2-10.1-.1-14.9-.1-4.9 0-9.8 0-14.7 0s-9.8 0-14.9 0c.3-.8.4-1.3.6-1.8 7.1-18.6 14.4-37 21.5-55.6 7.5-19.8 14.7-39.7 22-59.5.3-.7.5-1.3.8-2h81.8c-18.3 25.3-36.4 50.3-54.7 75.7h51.9c.1.1.1.3.2.3-39.4 45-78.5 90.1-117.5 135.4z"/><text font-family="'Bariol-Light'" font-size="60" transform="translate(120 268.3596)">Create multiple menu items at once</text></g></svg>