<svg enable-background="new 0 0 500 500" height="500" viewBox="0 0 500 500" width="500" xmlns="http://www.w3.org/2000/svg"><path d="m0 0h500v500h-500z" fill="#23282d"/><g fill="#fff"><path d="m33 38.9h434v33h-434z" opacity=".32"/><path d="m33 116.7h434v33h-434z" opacity=".32"/><path d="m33 194.5h434v33h-434z" opacity=".32"/></g><path d="m53.4 284v-13.1h-9.9v13.1h-12.5v9.6h12.5v13.2h9.9v-13.2h12.6v-9.6z" fill="#d35218"/><path d="m53.4 361.8v-13.1h-9.9v13.1h-12.5v9.6h12.5v13.2h9.9v-13.2h12.6v-9.6z" fill="#d35218"/><path d="m83 428h384v33h-384z" fill="#fff" opacity=".32"/><path d="m53.4 439.6v-13.1h-9.9v13.1h-12.5v9.6h12.5v13.2h9.9v-13.2h12.6v-9.6z" fill="#d35218"/><path d="m83 350.2h384v33h-384z" fill="#fff" opacity=".32"/><path d="m83 272.4h384v33h-384z" fill="#fff" opacity=".32"/><path d="m191 376.4c-.7-.4-1.2-.6-2-1 15.7-36.3 31.4-72.6 47.2-109.1-6.2-.2-12-.1-17.8-.1s-11.7 0-17.5 0-11.7 0-17.8 0c.3-.9.5-1.5.7-2.2 8.5-22.1 17.2-44.1 25.6-66.2 8.9-23.6 17.5-47.3 26.2-70.9.3-.8.6-1.6.9-2.4h97.4c-21.8 30.1-43.4 59.9-65.2 90.2h61.8c.1.1.1.3.2.4-46.7 53.6-93.2 107.4-139.7 161.3z" fill="#d35218"/></svg>